<svg xmlns="http://www.w3.org/2000/svg" fill="none" viewBox="0 0 800 400"><style>@keyframes pulse{0%,to{opacity:.6}50%{opacity:1}}@media (prefers-reduced-motion:reduce){.animate{animation:none!important}}.node,.node-accent{fill:oklch(17%.02 11);stroke:oklch(52%.26 11);stroke-width:2;rx:8}.node-accent{stroke:oklch(58%.22 280)}.label,.label-sm{fill:oklch(94%.01 11);font-family:&quot;Geist&quot;,system-ui;font-size:14px;text-anchor:middle}.label-sm{fill:oklch(72%.02 11);font-size:11px}.arrow{stroke:oklch(55%.02 11);stroke-width:2;marker-end:url(#arrowhead)}</style><defs><marker id="arrowhead" markerHeight="6" markerWidth="8" orient="auto" refX="8" refY="3"><path fill="oklch(55% 0.02 11)" d="m0 0 8 3-8 3z"/></marker></defs><path d="M20 30h140v50H20z" class="node"/><text x="90" y="60" class="label">Component A</text><path d="M20 100h140v50H20z" class="node"/><text x="90" y="130" class="label">Component B</text><path d="M20 170h140v50H20z" class="node"/><text x="90" y="200" class="label">Component C</text><path d="M250 80h180v100H250z" class="node-accent animate" style="animation:pulse 2s ease-in-out infinite"/><text x="340" y="115" class="label">ObserverPool</text><text x="340" y="140" class="label-sm">Single ResizeObserver</text><text x="340" y="158" class="label-sm">WeakMap + FinalizationRegistry</text><path d="M500 80h160v100H500z" class="node-accent"/><text x="580" y="115" class="label">RafScheduler</text><text x="580" y="140" class="label-sm">rAF batching</text><text x="580" y="158" class="label-sm">startTransition</text><path d="M640 260h140v50H640z" class="node"/><text x="710" y="290" class="label">React Render</text><path d="M640 330h140v50H640z" class="node"/><text x="710" y="360" class="label">1 Paint</text><path d="m160 55 88 55" class="arrow"/><path d="m160 125 88 5" class="arrow"/><path d="m160 195 88-40" class="arrow"/><path d="M430 130h68" class="arrow"/><path d="m660 130 48 128" class="arrow"/><path d="M710 310v18" class="arrow"/></svg>