<svg xmlns="http://www.w3.org/2000/svg" fill="none" viewBox="0 0 800 400"><style>@media (prefers-reduced-motion:reduce){*{animation:none!important}}@keyframes dash{to{stroke-dashoffset:-14}}.lane{fill:oklch(15%.02 11);stroke:oklch(30%.03 11);stroke-width:1;rx:8}.lane-label{fill:oklch(72%.02 11);font-family:&quot;Geist&quot;,system-ui;font-size:14px;font-weight:600;text-anchor:middle}.step,.step-worker{fill:oklch(20%.04 11);stroke:oklch(52%.26 11);stroke-width:1.5;rx:5}.step-worker{fill:oklch(20%.04 280);stroke:oklch(58%.22 280)}.step-text{fill:oklch(90%.01 11);font-family:&quot;Geist Mono&quot;,monospace;font-size:11px;text-anchor:middle}</style><defs><marker id="arrow-r" markerHeight="6" markerWidth="8" orient="auto" refX="8" refY="3"><path fill="oklch(52% 0.26 11)" d="m0 0 8 3-8 3z"/></marker><marker id="arrow-l" markerHeight="6" markerWidth="8" orient="auto" refX="0" refY="3"><path fill="oklch(58% 0.22 280)" d="M8 0 0 3l8 3z"/></marker></defs><path d="M40 40h320v340H40z" class="lane"/><text x="200" y="70" class="lane-label">Main Thread</text><path d="M440 40h320v340H440z" class="lane"/><text x="600" y="70" class="lane-label">Compute Workers (optional)</text><path d="M60 90h280v35H60z" class="step"/><text x="200" y="112" class="step-text">useResizeObserverWorker(ref)</text><path d="M60 155h280v35H60z" class="step"/><text x="200" y="177" class="step-text">ResizeObserver.observe(el)</text><path d="M60 220h280v35H60z" class="step"/><text x="200" y="242" class="step-text">writeSlot(): Float16Array → SAB</text><path d="M60 280h280v35H60z" class="step"/><text x="200" y="302" class="step-text">rAF: read Float16Array → setState</text><path d="M460 155h280v35H460z" class="step-worker"/><text x="600" y="177" class="step-text">Atomics.load / wait on SAB</text><path d="M460 220h280v35H460z" class="step-worker"/><text x="600" y="242" class="step-text">Read Float16Array from SAB</text><path d="M460 280h280v35H460z" class="step-worker"/><text x="600" y="302" class="step-text">WebGL / WASM compute</text><path d="M340 237h118" style="stroke:oklch(52%.26 11);stroke-width:1.5;stroke-dasharray:4 3;marker-end:url(#arrow-r);animation:dash 2s linear infinite"/></svg>